HIERARCHY
ROOT root
{
	OFFSET	0	13.1	24.9
	CHANNELS 6  Xposition Yposition Zposition Xrotation Yrotation Zrotation
	JOINT spine_1
	{
		OFFSET	0	9.99999	0
		CHANNELS 3  Xrotation Yrotation Zrotation
		JOINT spine_2
		{
			OFFSET	0	112	-10
			CHANNELS 3  Xrotation Yrotation Zrotation
			JOINT spine_3
			{
				OFFSET	0	206.5	19.3
				CHANNELS 3  Xrotation Yrotation Zrotation
				JOINT spine_4
				{
					OFFSET	0	110.4	14.6
					CHANNELS 3  Xrotation Yrotation Zrotation
					JOINT neck_1
					{
						OFFSET	0	71.8	-50.3
						CHANNELS 3  Xrotation Yrotation Zrotation
						JOINT neck_2
						{
							OFFSET	0	86.2	-25.8
							CHANNELS 3  Xrotation Yrotation Zrotation
							JOINT head_ee
							{
								OFFSET	0	179.8	-8.7
								CHANNELS 3  Xrotation Yrotation Zrotation
								End Site
								{
									OFFSET	1	0	0
								}
							}
						}
					}
					JOINT left_clavicle
					{
						OFFSET	-43.2	22.4	-70.8
						CHANNELS 3  Xrotation Yrotation Zrotation
						JOINT left_shoulder
						{
							OFFSET	-93.9	-5.79999	48.7
							CHANNELS 3  Xrotation Yrotation Zrotation
							JOINT left_elbow
							{
								OFFSET	-291.4	-30.8	15.2
								CHANNELS 3  Xrotation Yrotation Zrotation
								JOINT left_lowarm_twist
								{
									OFFSET	-110.7	-3.89999	13.6
									CHANNELS 3  Xrotation Yrotation Zrotation
									JOINT left_hand
									{
										OFFSET	-110.7	-3.89999	13.6
										CHANNELS 3  Xrotation Yrotation Zrotation
										JOINT left_ee
										{
											OFFSET	-80.8	-5.10001	12.1
											CHANNELS 3  Xrotation Yrotation Zrotation
											End Site
											{
												OFFSET	1	0	0
											}
										}
									}
								}
							}
						}
					}
					JOINT right_clavicle
					{
						OFFSET	43.2	22.4	-70.8
						CHANNELS 3  Xrotation Yrotation Zrotation
						JOINT right_shoulder
						{
							OFFSET	93.9	-5.79999	48.7
							CHANNELS 3  Xrotation Yrotation Zrotation
							JOINT right_elbow
							{
								OFFSET	291.4	-30.8	15.2
								CHANNELS 3  Xrotation Yrotation Zrotation
								JOINT right_lowarm_twist
								{
									OFFSET	110.7	-3.89999	13.6
									CHANNELS 3  Xrotation Yrotation Zrotation
									JOINT right_hand
									{
										OFFSET	110.7	-3.89999	13.6
										CHANNELS 3  Xrotation Yrotation Zrotation
										JOINT right_ee
										{
											OFFSET	80.8	-5.10001	12.1
											CHANNELS 3  Xrotation Yrotation Zrotation
											End Site
											{
												OFFSET	1	0	0
											}
										}
									}
								}
							}
						}
					}
				}
			}
		}
	}
	JOINT left_hip
	{
		OFFSET	-82.8	-127.5	0.300001
		CHANNELS 3  Xrotation Yrotation Zrotation
		JOINT left_knee
		{
			OFFSET	-28.2	-396.7	2.2
			CHANNELS 3  Xrotation Yrotation Zrotation
			JOINT left_ankle
			{
				OFFSET	-11.7	-411.3	35.4
				CHANNELS 3  Xrotation Yrotation Zrotation
				JOINT left_toes
				{
					OFFSET	0	-60	-88.6
					CHANNELS 3  Xrotation Yrotation Zrotation
					JOINT left_foot_ee
					{
						OFFSET	-22.5	-16.5	-42.2
						CHANNELS 3  Xrotation Yrotation Zrotation
						End Site
						{
							OFFSET	1	0	0
						}
					}
				}
			}
		}
	}
	JOINT right_hip
	{
		OFFSET	82.8	-127.5	0.300001
		CHANNELS 3  Xrotation Yrotation Zrotation
		JOINT right_knee
		{
			OFFSET	28.2	-396.7	2.2
			CHANNELS 3  Xrotation Yrotation Zrotation
			JOINT right_ankle
			{
				OFFSET	11.7	-411.3	35.4
				CHANNELS 3  Xrotation Yrotation Zrotation
				JOINT right_toes
				{
					OFFSET	0	-60	-88.6
					CHANNELS 3  Xrotation Yrotation Zrotation
					JOINT right_foot_ee
					{
						OFFSET	22.5	-16.5	-42.2
						CHANNELS 3  Xrotation Yrotation Zrotation
						End Site
						{
							OFFSET	1	0	0
						}
					}
				}
			}
		}
	}
}
MOTION
Frames: 16
Frame Time: 0.02
1041.4 574.639 -1682.42 6.37306878926 17.3858037979 7.25105079162 -2.3441 -0.420393 -3.1197 -2.33871 -0.221127 -3.1401 -2.32048 0.570048 -3.09587 -2.33385 0.0742112 -3.14699 -0.326125 11.0471 6.55579 -0.124133 14.4106 8.20486 -0.0 0.0 -0.0 7.45276 9.43188 14.2215 -25.3266 -16.2605 66.6062 0.589436 -16.2774 0.084296 19.9509 0.266324 -2.52178 1.90768 14.7081 18.2084 -0.0 0.0 -0.0 9.16499 9.73337 -18.0222 1.29431 28.9007 -49.8539 2.12399 46.4503 -0.911532 -0.261959 0.00930351 -0.0321612 -1.33539 -5.78049 6.33692 0.0 0.0 0.0 9.7342 -34.7178 -18.0147 -5.26136 0.18059 0.786986 -9.95095 29.2742 1.58467 5.22117 -0.0 -0.0 -0.0 0.0 -0.0 -16.575 27.1357 -9.73006 -13.7547 -0.317752 -2.08186 32.3724 -18.5303 4.23863 8.70758 -0.0 -0.0 0.0 0.0 0.0 
1041.4 574.639 -1682.42 6.39406870107 17.9746555467 7.1819058014 -2.3441 -0.420393 -3.1197 -2.33871 -0.221127 -3.1401 -2.32048 0.570048 -3.09587 -2.33385 0.0742112 -3.14699 -0.326125 11.0471 6.55579 -0.124133 14.4106 8.20486 -0.0 0.0 -0.0 7.45276 9.43188 14.2215 -25.3266 -16.2605 66.6062 0.589436 -16.2774 0.084296 19.9509 0.266324 -2.52178 1.90768 14.7081 18.2084 -0.0 0.0 -0.0 9.16499 9.73337 -18.0222 1.29431 28.9007 -49.8539 2.12399 46.4503 -0.911532 -0.261959 0.00930351 -0.0321612 -1.33539 -5.78049 6.33692 0.0 0.0 0.0 9.7342 -34.7178 -18.0147 -5.26136 0.18059 0.786986 -9.95095 29.2742 1.58467 5.22117 -0.0 -0.0 -0.0 0.0 -0.0 -16.575 27.1357 -9.73006 -13.7547 -0.317752 -2.08186 32.3724 -18.5303 4.23863 8.70758 -0.0 -0.0 0.0 0.0 0.0 
1030.23988487 573.768 -1692.84774809 5.95533754734 18.3966811673 8.12531748655 -2.24876 -0.477025 -3.32574 -2.24265 -0.264554 -3.34932 -2.22032 0.574472 -3.31032 -2.23561 0.0447665 -3.35944 0.529622 11.2715 6.11882 0.742307 14.9868 7.70648 -0.0 0.0 -0.0 7.52422 9.24013 14.3607 -23.5456 -16.4042 66.4849 0.616042 -16.9707 0.091908 20.6656 0.259471 -2.61282 1.9213 15.7355 18.6277 -0.0 0.0 -0.0 8.94408 9.57739 -17.5486 -1.06038 30.1045 -49.4427 2.13284 46.5691 -0.91795 -0.81387 0.0293861 -0.0997812 -1.13782 -6.09399 4.89705 0.0 0.0 0.0 9.50103 -34.6626 -18.9309 -5.74229 0.193474 0.859668 -13.928 29.5882 2.23219 4.23289 -0.0 -0.0 -0.0 0.0 -0.0 -16.0108 27.0056 -10.2559 -14.8443 -0.321413 -2.249 31.9473 -21.0283 4.23814 8.57827 -0.0 -0.0 0.0 0.0 0.0 
1030.16320735 573.768 -1692.76507569 5.97013111751 18.8173759457 8.07895395673 -2.24876 -0.477025 -3.32574 -2.24265 -0.264554 -3.34932 -2.22032 0.574472 -3.31032 -2.23561 0.0447665 -3.35944 0.529622 11.2715 6.11882 0.742307 14.9868 7.70648 -0.0 0.0 -0.0 7.52422 9.24013 14.3607 -23.5456 -16.4042 66.4849 0.616042 -16.9707 0.091908 20.6656 0.259471 -2.61282 1.9213 15.7355 18.6277 -0.0 0.0 -0.0 8.94408 9.57739 -17.5486 -1.06038 30.1045 -49.4427 2.13284 46.5691 -0.91795 -0.81387 0.0293861 -0.0997812 -1.13782 -6.09399 4.89705 0.0 0.0 0.0 9.50103 -34.6626 -18.9309 -5.74229 0.193474 0.859668 -13.928 29.5882 2.23219 4.23289 -0.0 -0.0 -0.0 0.0 -0.0 -16.0108 27.0056 -10.2559 -14.8443 -0.321413 -2.249 31.9473 -21.0283 4.23814 8.57827 -0.0 -0.0 0.0 0.0 0.0 
1030.03806756 573.768 -1692.62747722 5.99540522664 19.5112889637 8.00196558423 -2.24876 -0.477025 -3.32574 -2.24265 -0.264554 -3.34932 -2.22032 0.574472 -3.31032 -2.23561 0.0447665 -3.35944 0.529622 11.2715 6.11882 0.742307 14.9868 7.70648 -0.0 0.0 -0.0 7.52422 9.24013 14.3607 -23.5456 -16.4042 66.4849 0.616042 -16.9707 0.091908 20.6656 0.259471 -2.61282 1.9213 15.7355 18.6277 -0.0 0.0 -0.0 8.94408 9.57739 -17.5486 -1.06038 30.1045 -49.4427 2.13284 46.5691 -0.91795 -0.81387 0.0293861 -0.0997812 -1.13782 -6.09399 4.89705 0.0 0.0 0.0 9.50103 -34.6626 -18.9309 -5.74229 0.193474 0.859668 -13.928 29.5882 2.23219 4.23289 -0.0 -0.0 -0.0 0.0 -0.0 -16.0108 27.0056 -10.2559 -14.8443 -0.321413 -2.249 31.9473 -21.0283 4.23814 8.57827 -0.0 -0.0 0.0 0.0 0.0 
1029.95406119 573.768 -1692.53318865 6.0131935584 19.9824131611 7.94931680208 -2.24876 -0.477025 -3.32574 -2.24265 -0.264554 -3.34932 -2.22032 0.574472 -3.31032 -2.23561 0.0447665 -3.35944 0.529622 11.2715 6.11882 0.742307 14.9868 7.70648 -0.0 0.0 -0.0 7.52422 9.24013 14.3607 -23.5456 -16.4042 66.4849 0.616042 -16.9707 0.091908 20.6656 0.259471 -2.61282 1.9213 15.7355 18.6277 -0.0 0.0 -0.0 8.94408 9.57739 -17.5486 -1.06038 30.1045 -49.4427 2.13284 46.5691 -0.91795 -0.81387 0.0293861 -0.0997812 -1.13782 -6.09399 4.89705 0.0 0.0 0.0 9.50103 -34.6626 -18.9309 -5.74229 0.193474 0.859668 -13.928 29.5882 2.23219 4.23289 -0.0 -0.0 -0.0 0.0 -0.0 -16.0108 27.0056 -10.2559 -14.8443 -0.321413 -2.249 31.9473 -21.0283 4.23814 8.57827 -0.0 -0.0 0.0 0.0 0.0 
1017.51588225 575.601 -1712.32638426 6.25844411806 20.9130504034 8.84800335573 -2.38074 -0.428892 -3.50563 -2.37393 -0.205092 -3.52579 -2.35366 0.684106 -3.46493 -2.37039 0.128656 -3.5294 -1.07923 11.7024 7.01264 -0.858698 15.3875 8.80731 -0.0 0.0 -0.0 6.83568 11.6391 13.0191 -21.5051 -16.7218 66.0027 0.653091 -17.9276 0.103018 21.4608 0.250512 -2.71399 1.76696 15.461 17.5296 -0.0 0.0 -0.0 8.35569 8.70347 -16.306 -2.7903 30.6119 -50.3122 2.12422 46.4534 -0.911698 -2.05359 0.0768686 -0.250956 -0.970521 -7.98222 2.96606 0.0 0.0 0.0 9.27332 -34.5127 -19.5613 -8.22384 0.25023 1.23623 -17.4532 30.5615 2.82341 5.14471 -0.0 -0.0 -0.0 0.0 -0.0 -15.337 24.9687 -11.6705 -17.8268 -0.315176 -2.70651 31.6873 -23.218 4.25633 8.82097 -0.0 -0.0 0.0 0.0 0.0 
994.099100365 584.415 -1735.40502141 6.40634855131 21.7205119395 10.0098857046 -2.34062 -0.551435 -3.6972 -2.33307 -0.315222 -3.72475 -2.30386 0.623976 -3.68567 -2.32281 0.0344858 -3.73789 1.02824 13.3342 5.89258 1.33588 18.7418 7.59971 -0.0 0.0 -0.0 6.51457 8.90511 12.5468 -21.5418 -16.9063 67.0418 0.687272 -18.8014 0.113787 21.8139 0.246085 -2.75887 1.46451 16.4608 15.9 -0.0 0.0 -0.0 7.9322 7.35392 -15.4361 -4.7015 30.8405 -51.9335 1.98767 44.5514 -0.814285 -2.6768 0.101972 -0.326561 -1.06119 -9.73826 2.77298 0.0 0.0 0.0 8.2688 -31.7176 -19.6788 -10.2484 0.284418 1.54499 -15.8552 31.1912 2.5736 13.2739 -0.0 -0.0 -0.0 0.0 -0.0 -13.3794 24.8255 -13.6325 -21.9541 -0.267306 -3.33785 24.997 -27.0593 3.55218 12.6557 -0.0 -0.0 0.0 0.0 0.0 
993.140312351 584.415 -1734.5332435 6.45422234261 22.7593000768 9.8834031827 -2.34062 -0.551435 -3.6972 -2.33307 -0.315222 -3.72475 -2.30386 0.623976 -3.68567 -2.32281 0.0344858 -3.73789 1.02824 13.3342 5.89258 1.33588 18.7418 7.59971 -0.0 0.0 -0.0 6.51457 8.90511 12.5468 -21.5418 -16.9063 67.0418 0.687272 -18.8014 0.113787 21.8139 0.246085 -2.75887 1.46451 16.4608 15.9 -0.0 0.0 -0.0 7.9322 7.35392 -15.4361 -4.7015 30.8405 -51.9335 1.98767 44.5514 -0.814285 -2.6768 0.101972 -0.326561 -1.06119 -9.73826 2.77298 0.0 0.0 0.0 8.2688 -31.7176 -19.6788 -10.2484 0.284418 1.54499 -15.8552 31.1912 2.5736 13.2739 -0.0 -0.0 -0.0 0.0 -0.0 -13.3794 24.8255 -13.6325 -21.9541 -0.267306 -3.33785 24.997 -27.0593 3.55218 12.6557 -0.0 -0.0 0.0 0.0 0.0 
970.463974112 596.958 -1754.1082224 7.22942575218 23.9116266136 10.1236170524 -2.245 -0.779187 -4.0665 -2.23595 -0.519069 -4.10775 -2.18791 0.513522 -4.10845 -2.21143 -0.141201 -4.13795 1.46581 13.0969 5.78734 1.76921 18.3022 7.43035 -0.0 0.0 -0.0 6.49134 8.58003 12.5133 -18.9359 -16.5953 66.9262 0.734566 -19.9956 0.129496 22.5734 0.235623 -2.85532 1.13786 16.1434 13.7088 -0.0 0.0 -0.0 7.60241 8.18404 -14.7218 -8.31891 30.6922 -51.7107 1.71325 40.3176 -0.628994 -5.21621 0.212733 -0.631709 -0.68026 -8.67952 0.785063 0.0 0.0 0.0 7.24491 -30.8649 -19.0846 -11.8365 0.303587 1.7879 -17.0105 31.8984 2.77776 14.3343 -0.0 -0.0 -0.0 0.0 -0.0 -11.249 24.346 -15.0982 -24.3976 -0.217577 -3.70949 25.0289 -27.5625 3.56793 10.7252 -0.0 -0.0 0.0 0.0 0.0 
953.743193019 602.856 -1771.14234324 6.91859156119 23.7862456464 11.0842776719 -2.15838 -0.944698 -4.3568 -2.14807 -0.665826 -4.40794 -2.08434 0.437326 -4.43639 -2.1117 -0.268092 -4.44979 0.360923 14.4248 9.96755 0.74862 17.4608 12.1425 -0.0 0.0 -0.0 6.43591 3.06934 12.486 -16.7072 -15.3364 66.8127 0.729177 -19.8604 0.127659 23.5914 0.219597 -2.98437 0.498511 18.4258 10.5184 -0.0 0.0 -0.0 7.53207 7.0084 -14.6031 -10.469 31.0379 -52.0086 1.57786 38.0093 -0.543475 -7.97564 0.348322 -0.957457 -0.213691 -8.48513 -2.14433 0.0 0.0 0.0 5.07879 -29.4089 -20.2202 -11.6518 0.301704 1.75963 -15.5803 30.9571 2.5242 17.8204 -0.0 -0.0 -0.0 0.0 -0.0 -9.5013 23.1186 -15.0704 -25.7014 -0.184569 -3.90684 22.8147 -27.2464 3.27779 10.6269 -0.0 -0.0 0.0 0.0 0.0 
937.828699468 605.031 -1784.0635345 7.24880775784 23.8504972638 10.7191121301 -2.21759 -1.00291 -4.54678 -2.20638 -0.711873 -4.60123 -2.13535 0.444266 -4.63466 -2.1652 -0.292453 -4.64668 -2.28999 13.8041 11.3458 -1.89259 16.0257 13.6697 -0.0 0.0 -0.0 6.30517 2.79047 12.2352 -14.7595 -14.0235 67.181 0.78324 -21.2059 0.146623 24.1171 0.210423 -3.0509 0.260108 17.5354 8.72543 -0.0 0.0 -0.0 7.22103 7.24891 -13.9464 -11.433 31.3831 -52.6053 1.42349 35.1877 -0.45141 -11.1711 0.524763 -1.32612 -0.119878 -8.55694 -2.78032 0.0 0.0 0.0 4.44407 -27.2796 -19.7407 -12.169 0.306747 1.83882 -10.5933 29.5393 1.69125 21.6756 -0.0 -0.0 -0.0 0.0 -0.0 -7.90797 23.7061 -14.8125 -26.1477 -0.172236 -3.97424 20.8911 -27.1891 3.02495 11.1302 -0.0 -0.0 0.0 0.0 0.0 
925.258654047 607.079 -1788.25324223 7.14666226773 23.540738691 11.4155566175 -2.05784 -1.02139 -4.839 -2.0451 -0.711777 -4.89401 -1.96935 0.50243 -4.91985 -2.00301 -0.279896 -4.93746 -3.03468 13.8019 12.1367 -2.60422 15.624 14.5268 -0.0 0.0 -0.0 6.21954 0.689136 12.0576 -12.7508 -14.1455 66.3543 0.929114 -24.7142 0.203554 26.5494 0.160051 -3.3575 0.321092 16.13 8.57475 -0.0 0.0 -0.0 6.68636 7.64874 -12.8178 -12.7113 31.6405 -52.5588 1.33892 33.5532 -0.403665 -13.1459 0.644011 -1.54888 0.289988 -8.90466 -5.57272 0.0 0.0 0.0 4.50332 -26.9325 -20.1004 -13.3559 0.315617 2.02071 -10.503 30.0031 1.68189 24.4976 -0.0 -0.0 -0.0 0.0 -0.0 -5.75883 23.3872 -15.4769 -27.6857 -0.125727 -4.20568 17.8239 -26.1815 2.59658 11.374 -0.0 -0.0 0.0 0.0 0.0 
918.539484955 603.914 -1791.10166562 6.63147019454 23.3112841716 11.8398158605 -1.86473 -1.01745 -4.87569 -1.85179 -0.705527 -4.93037 -1.77666 0.500697 -4.9553 -1.81079 -0.287186 -4.9722 -4.1852 13.2688 12.564 -3.74654 14.6778 14.9485 -0.0 0.0 -0.0 6.24554 -0.540638 12.0939 -10.7113 -13.3729 64.9592 0.944723 -25.0786 0.210125 27.3557 0.140483 -3.45864 -0.165819 16.9985 5.90338 -0.0 0.0 -0.0 6.41873 7.97583 -12.2477 -13.3164 32.1351 -53.0141 1.29219 32.6223 -0.378149 -14.1321 0.706432 -1.65858 0.31747 -8.64566 -5.64767 0.0 0.0 0.0 4.16119 -26.1212 -20.174 -11.9753 0.304942 1.80916 -9.19316 30.3244 1.47297 26.405 -0.0 -0.0 -0.0 0.0 -0.0 -4.42022 23.1785 -15.9032 -28.5904 -0.0954706 -4.34122 17.2652 -26.1014 2.5194 11.4624 -0.0 -0.0 0.0 0.0 0.0 
916.046691477 603.914 -1788.21677992 6.70021392297 24.6340722601 11.6706331313 -1.86473 -1.01745 -4.87569 -1.85179 -0.705527 -4.93037 -1.77666 0.500697 -4.9553 -1.81079 -0.287186 -4.9722 -4.1852 13.2688 12.564 -3.74654 14.6778 14.9485 -0.0 0.0 -0.0 6.24554 -0.540638 12.0939 -10.7113 -13.3729 64.9592 0.944723 -25.0786 0.210125 27.3557 0.140483 -3.45864 -0.165819 16.9985 5.90338 -0.0 0.0 -0.0 6.41873 7.97583 -12.2477 -13.3164 32.1351 -53.0141 1.29219 32.6223 -0.378149 -14.1321 0.706432 -1.65858 0.31747 -8.64566 -5.64767 0.0 0.0 0.0 4.16119 -26.1212 -20.174 -11.9753 0.304942 1.80916 -9.19316 30.3244 1.47297 26.405 -0.0 -0.0 -0.0 0.0 -0.0 -4.42022 23.1785 -15.9032 -28.5904 -0.0954706 -4.34122 17.2652 -26.1014 2.5194 11.4624 -0.0 -0.0 0.0 0.0 0.0 
898.925959092 606.797 -1799.81540778 6.62850168714 25.237716695 12.250827606 -1.8213 -1.12 -5.09005 -1.80724 -0.794279 -5.15077 -1.72012 0.462212 -5.19101 -1.75752 -0.362272 -5.19892 -3.89042 13.7823 11.5877 -3.49731 16.2958 14.011 -0.0 0.0 -0.0 6.16169 -1.03476 11.9199 -9.21171 -13.7791 64.172 1.03488 -27.1414 0.24981 28.8714 0.0998567 -3.64798 0.0629224 14.1915 6.21607 -0.0 0.0 -0.0 6.28244 8.81897 -11.928 -15.3064 31.4155 -52.7764 1.12271 29.0801 -0.291199 -13.7129 0.679668 -1.61208 0.869412 -8.26883 -9.0993 0.0 0.0 0.0 2.68605 -25.3285 -20.1892 -11.145 0.296068 1.68207 -7.06176 30.4871 1.12938 27.0563 -0.0 -0.0 -0.0 0.0 -0.0 -0.450763 23.3799 -18.0448 -33.4418 0.103077 -5.05902 16.7459 -26.0735 2.44803 11.389 -0.0 -0.0 0.0 0.0 0.0 
